Coordinates
version=1
nRows=30
nColumns=19
inDegrees=yes

Units are S.I. units (second, meters, Newtons, ...)
If the header above contains a line with 'inDegrees', this indicates whether rotational values are in degrees (yes) or radians (no).

endheader
time	pelvis_tilt	pelvis_list	pelvis_rotation	pelvis_tx	pelvis_ty	pelvis_tz	hip_flexion_r	hip_adduction_r	hip_rotation_r	knee_angle_r	knee_angle_r_beta	ankle_angle_r	hip_flexion_l	hip_adduction_l	hip_rotation_l	knee_angle_l	knee_angle_l_beta	ankle_angle_l
     12.91333333	     -0.04638527	      6.33195883	      5.31445075	      2.17511918	      1.10787031	      1.01937701	    -27.06024164	    -10.15443108	    -30.79753389	     46.50764910	      0.81171160	    -13.59674899	     23.63842634	     11.54015336	      4.59113038	     16.39221340	      0.28609810	      8.19054929
     12.92000000	      0.51242152	      6.56760890	      5.30347238	      2.17514440	      1.10480641	      1.01876714	    -26.51798608	    -10.62171519	    -29.20556379	     50.36628204	      0.87905745	    -13.19627807	     22.93355908	     11.52115795	      3.61008022	     16.99251759	      0.29657538	      7.52944881
     12.92666667	      0.89941665	      6.76445513	      5.21431823	      2.17477378	      1.10130535	      1.01835793	    -25.53232973	    -11.01983881	    -27.35170426	     54.42082436	      0.94982257	    -12.79453241	     22.57785719	     11.42802200	      2.44732567	     18.16305959	      0.31700519	      6.80274330
     12.93333333	      1.05465437	      6.85682648	      5.21110722	      2.17392005	      1.09716681	      1.01805097	    -24.10398232	    -11.23267425	    -25.48830520	     58.63147661	      1.02331231	    -12.35832466	     22.68526023	     11.24744593	      1.26232271	     19.99016921	      0.34889427	      6.17753956
     12.94000000	      1.14575964	      6.96429056	      5.21366540	      2.17264773	      1.09263963	      1.01791271	    -22.46100971	    -11.39808688	    -23.66759471	     62.92277968	      1.09820968	    -11.86231989	     22.97479858	     11.06292154	      0.09657260	     22.24651570	      0.38827495	      5.69410343
     12.94666667	      1.18338471	      7.10219802	      5.22870616	      2.17096004	      1.08774413	      1.01796426	    -20.64721661	    -11.55404802	    -21.96764160	     67.26628372	      1.17401813	    -11.26948615	     23.38302849	     10.89760403	     -1.00089688	     24.80662185	      0.43295723	      5.44881127
     12.95333333	      1.16718222	      7.28023713	      5.30535435	      2.16891999	      1.08255212	      1.01812183	    -18.70702451	    -11.71594905	    -20.46437813	     71.60234320	      1.24969664	    -10.58232938	     23.86557559	     10.80244258	     -1.90080725	     27.57205341	      0.48122311	      5.52686073
     12.96000000	      1.08956931	      7.49948382	      5.50490955	      2.16646712	      1.07704819	      1.01830555	    -16.65871578	    -11.87841205	    -19.20181819	     75.90802619	      1.32484499	     -9.75402263	     24.40997684	     10.80452908	     -2.56072743	     30.46045413	      0.53163522	      5.99378973
     12.96666667	      1.03885448	      7.85349364	      5.68161632	      2.16377951	      1.07157247	      1.01857572	    -14.58994467	    -12.22205345	    -18.07773346	     80.13833334	      1.39867777	     -8.85093652	     24.82766128	     10.98027131	     -3.04561736	     33.27736872	      0.58079965	      6.87327153
     12.97333333	      1.01987047	      8.29333701	      6.02394387	      2.16082768	      1.06629972	      1.01873716	    -12.55830085	    -12.60670025	    -17.18837401	     84.22112681	      1.46993596	     -7.84267027	     25.05839628	     11.34736319	     -3.23738896	     35.91192678	      0.62678136	      8.04213149
     12.98000000	      1.09768705	      8.95732577	      6.33918867	      2.15776428	      1.06138229	      1.01893402	    -10.60734807	    -13.26886678	    -16.36927405	     88.16531895	      1.53877510	     -6.77304180	     24.99666988	     11.98041389	     -3.31423406	     38.27433530	      0.66801317	      9.49482695
     12.98666667	      0.91226806	      9.44339493	      6.70572278	      2.15453614	      1.05658078	      1.01904127	     -8.23505817	    -13.76586214	    -15.49834002	     91.95928961	      1.60499238	     -5.72299757	     25.11492646	     12.51369094	     -3.17167784	     40.48309028	      0.70656322	     11.21210891
     12.99333333	      0.93543654	     10.24453929	      6.97467613	      2.15136756	      1.05254617	      1.01923839	     -6.07257683	    -14.63133130	    -14.58526783	     95.54132505	      1.66751069	     -4.65223377	     24.71557105	     13.35779700	     -3.03417355	     42.20046345	      0.73653703	     12.97785180
     13.00000000	      0.83530187	     10.92282369	      7.22144084	      2.14825990	      1.04896550	      1.01944179	     -3.63980223	    -15.33795995	    -13.51402296	     98.89940141	      1.72612018	     -3.59445486	     24.28220685	     14.10109055	     -2.78431201	     43.64471570	      0.76174399	     14.79828880
     13.00666667	      0.67287768	     11.60177741	      7.35503891	      2.14526427	      1.04596033	      1.01971157	     -0.99968065	    -16.05205699	    -12.22969560	    102.02783209	      1.78072160	     -2.66727491	     23.70219021	     14.82427901	     -2.54859398	     44.70312924	      0.78021679	     16.55232891
     13.01333333	      0.37185917	     12.12050872	      7.41784064	      2.14238436	      1.04340173	      1.02000971	      1.94572519	    -16.54225357	    -10.74324004	    104.89591825	      1.83077915	     -1.80177251	     23.11346104	     15.37665497	     -2.28077628	     45.46941328	      0.79359097	     18.21644193
     13.02000000	      0.18422627	     12.65833484	      7.31149738	      2.13979364	      1.04166594	      1.02046554	      4.87020334	    -16.99917944	     -9.06826244	    107.44699552	      1.87530384	     -1.05634823	     22.17891677	     15.88402863	     -2.08354177	     45.82308300	      0.79976367	     19.68930322
     13.02666667	     -0.18519235	     12.95717981	      7.16056713	      2.13739847	      1.04031610	      1.02090656	      8.11101899	    -17.11512898	     -7.27265986	    109.69380102	      1.91451800	     -0.41174827	     21.31654492	     16.15529221	     -1.83756389	     45.94792290	      0.80194254	     20.99701539
     13.03333333	     -0.28330218	     13.27986825	      6.80986852	      2.13542141	      1.03996775	      1.02162984	     11.08572654	    -17.14676846	     -5.38889583	    111.55889468	      1.94707002	      0.14973862	     19.92695680	     16.35958554	     -1.68977077	     45.63686493	      0.79651355	     22.07145345
     13.04000000	     -0.36360499	     13.37653609	      6.45691291	      2.13368461	      1.04014051	      1.02230912	     14.01761417	    -16.86539427	     -3.63074772	    113.05237603	      1.97313619	      0.63337622	     18.40783063	     16.35261709	     -1.42541187	     45.14041331	      0.78784884	     23.02438846
     13.04666667	     -0.62071378	     13.32366259	      5.99202201	      2.13222238	      1.04073972	      1.02316077	     17.17591122	    -16.32194839	     -1.83051253	    114.21750052	      1.99347145	      1.04302221	     16.96013375	     16.16566276	     -1.26996228	     44.38384210	      0.77464418	     23.65973434
     13.05333333	     -0.83328571	     13.07963287	      5.59890591	      2.13111191	      1.04193485	      1.02387224	     20.13409988	    -15.56261989	     -0.33998468	    114.98509415	      2.00686848	      1.42167494	     15.33217167	     15.82327305	     -0.95445450	     43.42581150	      0.75792339	     24.13705540
     13.06000000	     -0.92660740	     12.58666462	      5.58133492	      2.13024812	      1.04399564	      1.02410374	     22.63814449	    -14.70570619	      0.42771434	    115.27740135	      2.01197021	      1.87494082	     13.42214247	     15.36504506	     -0.04174057	     42.30914181	      0.73843383	     24.38567384
     13.06666667	     -1.11684881	     12.24630842	      4.76204275	      2.12958663	      1.04604347	      1.02537810	     25.52874611	    -13.62503495	      1.99351298	    115.42248578	      2.01450241	      2.15200063	     11.61849033	     14.78940569	     -0.26121481	     40.90012002	      0.71384176	     24.40224366
     13.07333333	     -1.31860533	     11.65136945	      4.37810955	      2.12921147	      1.04869799	      1.02608744	     28.06255716	    -12.50854953	      2.78407504	    115.13055374	      2.00940723	      2.54573581	      9.71515781	     14.10361435	      0.10648279	     39.40794281	      0.68779835	     24.16430023
     13.08000000	     -1.47213337	     10.95211728	      4.00249632	      2.12920712	      1.05187346	      1.02679479	     30.35267389	    -11.30725077	      3.32274781	    114.49850098	      1.99837583	      2.93471772	      7.65796543	     13.30429959	      0.47005392	     37.70842260	      0.65813613	     23.69853035
     13.08666667	     -1.60980370	     10.13932952	      3.66530222	      2.12934172	      1.05540945	      1.02742404	     32.45794993	    -10.05226886	      3.60509214	    113.55989543	      1.98199407	      3.38910223	      5.55982612	     12.40119888	      0.86836381	     35.91758885	      0.62688018	     22.91525504
     13.09333333	     -2.23252116	      9.27705681	      3.71423545	      2.12980637	      1.05867411	      1.02752927	     34.85109718	     -9.07093519	      3.42834168	    112.36450308	      1.96113054	      3.93923455	      3.97472776	     11.49197707	      1.47689764	     34.15110954	      0.59604930	     21.85590250
     13.10000000	     -1.84697627	      8.22994962	      3.04542419	      2.13060580	      1.06347824	      1.02845868	     36.05630393	     -7.48082979	      3.48212324	    110.80000581	      1.93382491	      4.41750807	      1.19089221	     10.26075251	      1.44825118	     31.95767912	      0.55776672	     20.40811124
     13.10666667	     -2.62157493	      7.25465526	      3.11099652	      2.13151800	      1.06702270	      1.02846527	     38.30962403	     -6.48626722	      3.01812025	    109.10965044	      1.90432265	      5.02002091	     -0.23320897	      9.23144080	      2.00649336	     30.04899899	      0.52445397	     18.59520106
